<svg xmlns="http://www.w3.org/2000/svg" viewBox="0 0 32 32" width="32" height="32" role="img" aria-label="Icon — compute">
  
  <rect x="8" y="8" width="16" height="16" rx="1.5" ry="1.5" fill="#ffffff" stroke="#0a0a0a" stroke-width="1.5"></rect>
  
  <line x1="4" y1="12" x2="8" y2="12" stroke="#0a0a0a" stroke-width="1.4" stroke-linecap="round"></line>
  <line x1="4" y1="16" x2="8" y2="16" stroke="#0a0a0a" stroke-width="1.4" stroke-linecap="round"></line>
  <line x1="4" y1="20" x2="8" y2="20" stroke="#0a0a0a" stroke-width="1.4" stroke-linecap="round"></line>
  <line x1="24" y1="12" x2="28" y2="12" stroke="#0a0a0a" stroke-width="1.4" stroke-linecap="round"></line>
  <line x1="24" y1="16" x2="28" y2="16" stroke="#0a0a0a" stroke-width="1.4" stroke-linecap="round"></line>
  <line x1="24" y1="20" x2="28" y2="20" stroke="#0a0a0a" stroke-width="1.4" stroke-linecap="round"></line>
  <line x1="12" y1="4" x2="12" y2="8" stroke="#0a0a0a" stroke-width="1.4" stroke-linecap="round"></line>
  <line x1="16" y1="4" x2="16" y2="8" stroke="#0a0a0a" stroke-width="1.4" stroke-linecap="round"></line>
  <line x1="20" y1="4" x2="20" y2="8" stroke="#0a0a0a" stroke-width="1.4" stroke-linecap="round"></line>
  <line x1="12" y1="24" x2="12" y2="28" stroke="#0a0a0a" stroke-width="1.4" stroke-linecap="round"></line>
  <line x1="16" y1="24" x2="16" y2="28" stroke="#0a0a0a" stroke-width="1.4" stroke-linecap="round"></line>
  <line x1="20" y1="24" x2="20" y2="28" stroke="#0a0a0a" stroke-width="1.4" stroke-linecap="round"></line>
  
  <rect x="12" y="12" width="8" height="8" fill="#0066aa" stroke="#0a0a0a" stroke-width="1.2" rx="0.5" ry="0.5"></rect>

</svg>